<svg width="20" height="30" viewBox="0 0 20 30" fill="none" xmlns="http://www.w3.org/2000/svg">
<path d="M19 9.74497C19 14.5506 14.995 18.4899 10 18.4899C5.00492 18.4899 1 14.5506 1 9.74497C1 4.93946 5.00493 1 10 1C14.995 1 19 4.93946 19 9.74497Z" stroke="#3E3E3E" stroke-width="2"/>
<path d="M10.0002 22.7373C12.0178 22.7373 13.9413 22.2914 15.6668 21.4892V28.3489C15.6668 28.8099 15.5121 28.9499 15.4826 28.9706L15.4823 28.9708C15.472 28.9781 15.3497 29.0644 15.0107 28.9017L15.0103 28.9015L11.04 26.9975L11.0253 26.9904L11.0103 26.9838C10.6808 26.8388 10.3171 26.7867 10.0002 26.7867C9.68318 26.7867 9.31956 26.8388 8.99002 26.9838L8.97508 26.9904L8.96035 26.9975L4.99513 28.899C4.65719 29.0557 4.5335 28.9686 4.52054 28.9594L4.52049 28.9594C4.4877 28.9363 4.33391 28.7941 4.3335 28.3358C4.3335 28.3352 4.3335 28.3345 4.3335 28.3339L4.36145 21.49C6.07339 22.2919 7.98367 22.7373 10.0002 22.7373Z" stroke="#3E3E3E" stroke-width="2"/>
</svg>
