<svg width="30" height="30" viewBox="0 0 30 30" fill="none" xmlns="http://www.w3.org/2000/svg">
<path d="M15.9703 1.91039C15.649 1.88667 15.3269 1.87478 15.0048 1.87477V0C15.3732 0.000179654 15.7416 0.0139373 16.1091 0.0412448L15.9703 1.91039ZM19.7276 2.75403C19.1266 2.52213 18.5093 2.33477 17.8808 2.19348L18.2914 0.363705C19.0095 0.524934 19.7163 0.738658 20.4025 1.00487L19.7276 2.75403ZM22.2961 4.08511C22.0281 3.90635 21.7535 3.73751 21.4731 3.57893L22.3974 1.94788C23.0384 2.31109 23.6519 2.72089 24.2329 3.17398L23.0798 4.65317C22.8256 4.45488 22.5642 4.26602 22.2961 4.08699V4.08511ZM25.7346 7.44094C25.3638 6.91409 24.9546 6.4153 24.5103 5.94863L25.8677 4.65504C26.374 5.18935 26.8427 5.76115 27.2683 6.36108L25.7346 7.44094ZM27.1295 9.97563C27.0065 9.6784 26.8726 9.38574 26.7283 9.09824L28.4026 8.25459C28.7337 8.91279 29.0157 9.59457 29.2463 10.2943L27.4651 10.8811C27.3644 10.5753 27.2524 10.2733 27.1295 9.97563ZM28.1232 14.6757C28.108 14.0314 28.0454 13.3891 27.9357 12.754L29.7825 12.4353C29.9081 13.159 29.9812 13.8939 30 14.6288L28.1251 14.6757H28.1232ZM27.8776 17.5591C27.9395 17.2403 27.9901 16.9235 28.0295 16.6029L29.8912 16.8335C29.8012 17.565 29.657 18.2887 29.46 18.9989L27.6526 18.4983C27.7389 18.189 27.8139 17.8759 27.8776 17.5591ZM26.0927 22.0191C26.4377 21.4754 26.7414 20.9055 27.0039 20.3168L28.7175 21.0761C28.4176 21.751 28.0707 22.3997 27.677 23.0221L26.0927 22.0191ZM24.2854 24.2782C24.5141 24.0495 24.7335 23.8133 24.9416 23.5696L26.3627 24.7938C26.122 25.0728 25.8713 25.3429 25.6109 25.6037L24.2854 24.2782Z" fill="#FF385C"/>
<path d="M15.0048 1.87477C12.8466 1.87492 10.7217 2.40729 8.81845 3.42471C6.91514 4.44213 5.29213 5.9132 4.09318 7.70763C2.89422 9.50206 2.15632 11.5645 1.94483 13.7121C1.73335 15.8598 2.05481 18.0265 2.88074 20.0203C3.70666 22.0141 5.01157 23.7735 6.67987 25.1426C8.34818 26.5117 10.3284 27.4482 12.4451 27.8693C14.5618 28.2903 16.7497 28.1829 18.815 27.5565C20.8803 26.9301 22.7592 25.8041 24.2854 24.2782L25.6109 25.6037C23.8668 27.3487 21.7192 28.6365 19.3583 29.3532C16.9975 30.0699 14.4963 30.1932 12.0764 29.7122C9.65647 29.2312 7.39257 28.1608 5.48525 26.5958C3.57793 25.0309 2.08609 23.0196 1.1419 20.7403C0.197719 18.461 -0.169657 15.984 0.0723285 13.5288C0.314314 11.0736 1.15819 8.71597 2.52918 6.66483C3.90017 4.61368 5.75596 2.93234 7.9321 1.76978C10.1082 0.607227 12.5376 -0.000653791 15.0048 5.27668e-07V1.87477Z" fill="#FF385C"/>
<path d="M14.0672 5.62433C14.3158 5.62433 14.5543 5.72309 14.7301 5.89888C14.9059 6.07468 15.0046 6.3131 15.0046 6.56171V16.3292L21.0942 19.8088C21.3038 19.9352 21.4556 20.1386 21.5172 20.3755C21.5788 20.6124 21.5453 20.864 21.4239 21.0765C21.3024 21.289 21.1027 21.4456 20.8673 21.5128C20.6319 21.58 20.3796 21.5525 20.1643 21.4361L13.6022 17.6866C13.4587 17.6046 13.3395 17.4862 13.2565 17.3433C13.1735 17.2004 13.1298 17.0381 13.1298 16.8729V6.56171C13.1298 6.3131 13.2285 6.07468 13.4043 5.89888C13.5801 5.72309 13.8186 5.62433 14.0672 5.62433Z" fill="#FF385C"/>
</svg>
