<svg width="15" height="13" viewBox="0 0 15 13" fill="none" xmlns="http://www.w3.org/2000/svg">
<path d="M7.24498 10.9028C7.40221 10.8096 7.59779 10.8096 7.75502 10.9028L11.1212 12.8989C11.5008 13.124 11.9647 12.7827 11.8627 12.3533L10.9757 8.61786C10.9323 8.43506 10.9951 8.24335 11.1381 8.12158L14.0845 5.61391C14.4232 5.32565 14.2452 4.77182 13.802 4.73488L9.9063 4.41017C9.72237 4.39484 9.56184 4.27942 9.48873 4.10995L7.9591 0.564213C7.78542 0.161621 7.21458 0.161621 7.0409 0.564213L5.51127 4.10995C5.43816 4.27942 5.27763 4.39484 5.0937 4.41017L1.19803 4.73488C0.754811 4.77182 0.5768 5.32565 0.915492 5.61391L3.86187 8.12158C4.00494 8.24335 4.06768 8.43506 4.02427 8.61786L3.13729 12.3533C3.03533 12.7827 3.49916 13.124 3.87879 12.8989L7.24498 10.9028Z" fill="black"/>
</svg>
