<svg width="28" height="30" viewBox="0 0 28 30" fill="none" xmlns="http://www.w3.org/2000/svg">
<path d="M9.66667 1C6.92448 1 4.71429 2.99938 4.71429 5.48C4.71429 7.96063 6.92448 9.96 9.66667 9.96C11.502 9.96 13.0859 9.05656 13.942 7.72H21.4286C21.593 7.72438 21.755 7.6675 21.8735 7.5625L23.1116 6.4425C23.2277 6.33531 23.2906 6.18875 23.2857 6.04V4.92C23.2906 4.77125 23.2277 4.62469 23.1116 4.5175L21.8735 3.3975C21.755 3.2925 21.593 3.23563 21.4286 3.24H20.1905C20.026 3.23563 19.864 3.2925 19.7455 3.3975L19.2619 3.835L18.7783 3.3975C18.6598 3.2925 18.4978 3.23563 18.3333 3.24H17.0952C16.9719 3.23781 16.851 3.26844 16.747 3.3275L16.1667 3.6775L15.5863 3.3275C15.4823 3.26844 15.3614 3.23781 15.2381 3.24H13.942C13.0859 1.90344 11.502 1 9.66667 1ZM9.66667 2.12C11.7535 2.12 13.381 3.59219 13.381 5.48C13.381 7.36781 11.7535 8.84 9.66667 8.84C7.5798 8.84 5.95238 7.36781 5.95238 5.48C5.95238 3.59219 7.5798 2.12 9.66667 2.12ZM8.42857 4.36C7.74423 4.36 7.19048 4.86094 7.19048 5.48C7.19048 6.09906 7.74423 6.6 8.42857 6.6C9.11291 6.6 9.66667 6.09906 9.66667 5.48C9.66667 4.86094 9.11291 4.36 8.42857 4.36ZM14.4643 4.36H15.0446L15.8185 4.8325C16.0288 4.96156 16.3045 4.96156 16.5149 4.8325L17.2887 4.36H18.0625L18.817 5.0425C18.933 5.15188 19.0951 5.21313 19.2619 5.21313C19.4288 5.21313 19.5908 5.15188 19.7068 5.0425L20.4613 4.36H21.1577L22.0476 5.165V5.795L21.1577 6.6H14.4643C14.5658 6.24125 14.619 5.86719 14.619 5.48C14.619 5.09281 14.5658 4.71875 14.4643 4.36ZM8.23512 11.08C6.99702 11.08 5.86533 11.7669 5.39137 12.8125C5.38895 12.8212 5.37444 12.8212 5.37202 12.83L3.55357 16.68H2.85714C1.8391 16.68 1 17.4391 1 18.36C1 19.2809 1.8391 20.04 2.85714 20.04V27.32C2.85714 28.2409 3.69624 29 4.71429 29H6.57143C7.58947 29 8.42857 28.2409 8.42857 27.32V26.76H19.5714V27.32C19.5714 28.2409 20.4105 29 21.4286 29H23.2857C24.3038 29 25.1429 28.2409 25.1429 27.32V20.04C26.1609 20.04 27 19.2809 27 18.36C27 17.4391 26.1609 16.68 25.1429 16.68H24.4464L22.628 12.83C22.6256 12.8212 22.611 12.8212 22.6086 12.8125C22.1347 11.7669 21.003 11.08 19.7649 11.08H8.23512ZM8.23512 12.2H19.7649C20.4976 12.2 21.1916 12.6287 21.4673 13.25L21.4866 13.2675L23.2277 16.96L22.628 17.3275V17.345C22.1153 17.6688 21.5664 17.8 20.9256 17.8H7.07441C6.43359 17.8 5.88467 17.6688 5.37202 17.345V17.3275L4.77232 16.96L6.51339 13.2675L6.53274 13.25C6.80841 12.6287 7.50242 12.2 8.23512 12.2ZM2.85714 17.8H3.90179L4.6756 18.2725V18.255H4.69494C5.41797 18.7078 6.23531 18.92 7.07441 18.92H20.9256C21.7647 18.92 22.582 18.7078 23.3051 18.255C23.3099 18.2528 23.3196 18.2572 23.3244 18.255V18.2725L24.0982 17.8H25.1429C25.4862 17.8 25.7619 18.0494 25.7619 18.36C25.7619 18.6706 25.4862 18.92 25.1429 18.92H23.9048V25.64H4.09524V18.92H2.85714C2.51377 18.92 2.2381 18.6706 2.2381 18.36C2.2381 18.0494 2.51377 17.8 2.85714 17.8ZM7.5 20.6C6.31027 20.6 5.33333 21.4837 5.33333 22.56C5.33333 23.6362 6.31027 24.52 7.5 24.52C8.68973 24.52 9.66667 23.6362 9.66667 22.56C9.66667 21.4837 8.68973 20.6 7.5 20.6ZM20.5 20.6C19.3103 20.6 18.3333 21.4837 18.3333 22.56C18.3333 23.6362 19.3103 24.52 20.5 24.52C21.6897 24.52 22.6667 23.6362 22.6667 22.56C22.6667 21.4837 21.6897 20.6 20.5 20.6ZM7.5 21.72C8.04167 21.72 8.42857 22.07 8.42857 22.56C8.42857 23.05 8.04167 23.4 7.5 23.4C6.95833 23.4 6.57143 23.05 6.57143 22.56C6.57143 22.07 6.95833 21.72 7.5 21.72ZM20.5 21.72C21.0417 21.72 21.4286 22.07 21.4286 22.56C21.4286 23.05 21.0417 23.4 20.5 23.4C19.9583 23.4 19.5714 23.05 19.5714 22.56C19.5714 22.07 19.9583 21.72 20.5 21.72ZM4.09524 26.76H7.19048V27.32C7.19048 27.6306 6.91481 27.88 6.57143 27.88H4.71429C4.37091 27.88 4.09524 27.6306 4.09524 27.32V26.76ZM20.8095 26.76H23.9048V27.32C23.9048 27.6306 23.6291 27.88 23.2857 27.88H21.4286C21.0852 27.88 20.8095 27.6306 20.8095 27.32V26.76Z" fill="#3E3E3E" stroke="black" stroke-width="0.3"/>
</svg>
