<svg width="31" height="27" viewBox="0 0 31 27" fill="none" xmlns="http://www.w3.org/2000/svg">
<path d="M11.2296 27C11.0978 27 11.0187 26.9745 10.9133 26.9234C10.4388 26.6172 8.19813 25.0095 10.0697 21.8195C10.5706 20.9518 10.7024 20.2628 10.5179 19.7013C10.307 19.0633 9.6216 18.8081 9.6216 18.8081C9.30527 18.6805 9.14711 18.3233 9.27891 18.017C9.38435 17.7618 9.59524 17.6087 9.85884 17.6087C9.93793 17.6087 10.017 17.6342 10.0961 17.6597C10.2015 17.6597 11.3087 18.1191 11.7568 19.2675C12.0995 20.1862 11.915 21.258 11.2032 22.4575C9.8852 24.7032 11.2823 25.6985 11.5723 25.8771C11.8622 26.0302 11.9677 26.413 11.8095 26.7193C11.6514 26.9234 11.4141 27 11.2296 27ZM15.5 25.6474C15.3682 25.6474 15.2891 25.6219 15.1837 25.5709C14.2347 25.035 12.8903 23.3762 14.3929 20.7732C14.841 19.982 14.9728 19.344 14.7883 18.8592C14.6037 18.2977 13.9974 18.0681 13.9974 18.0681C13.6548 17.9405 13.4966 17.6087 13.6284 17.2769C13.7338 17.0217 13.9447 16.8686 14.2083 16.8686C14.2874 16.8686 14.3665 16.8941 14.4456 16.9197C14.7092 17.0217 15.6318 17.4301 16.0009 18.4509C16.3172 19.3185 16.159 20.3138 15.5 21.4112C14.2347 23.6059 15.7636 24.4991 15.8427 24.5246C15.9745 24.6011 16.0799 24.7287 16.1327 24.8819C16.1854 25.035 16.159 25.2136 16.0799 25.3667C15.9218 25.5709 15.6845 25.6474 15.5 25.6474ZM6.7483 25.6474C6.6165 25.6474 6.53742 25.6219 6.43197 25.5709C5.48299 25.035 4.13861 23.3762 5.64116 20.7732C6.08929 19.982 6.22109 19.344 6.03657 18.8592C5.85204 18.2977 5.24575 18.0681 5.24575 18.0681C4.90306 17.9405 4.7449 17.6087 4.8767 17.2769C4.98214 17.0217 5.19303 16.8686 5.45663 16.8686C5.53571 16.8686 5.6148 16.8941 5.69388 16.9197C5.95748 17.0217 6.8801 17.4556 7.24915 18.4509C7.56548 19.3185 7.38095 20.3138 6.7483 21.4367C5.48299 23.6314 7.01191 24.5246 7.09099 24.5501C7.22279 24.6267 7.32823 24.7543 7.38095 24.9074C7.43367 25.0605 7.40731 25.2391 7.32823 25.3923C7.19643 25.5709 6.93282 25.6474 6.7483 25.6474ZM22.8019 23.3762C22.591 23.3762 22.4328 23.2996 22.301 23.172C22.1692 23.0444 22.0901 22.8658 22.0901 22.6871C22.0901 22.4064 22.2747 22.1512 22.5383 22.0236H22.5646V20.6456L21.2202 21.3856V21.4112C21.2202 21.6153 21.1412 21.8705 20.8776 21.9981C20.7721 22.0747 20.6403 22.1002 20.5085 22.1002C20.2449 22.1002 20.0077 21.9726 19.9022 21.7684C19.7968 21.5898 19.7704 21.4112 19.8231 21.2325C19.8759 21.0539 19.9813 20.9008 20.1658 20.8242C20.2713 20.7476 20.4031 20.7221 20.5085 20.7221C20.6403 20.7221 20.7721 20.7476 20.8776 20.8242L22.0901 20.1607L20.9039 19.4972C20.7457 19.5482 20.6139 19.5737 20.5085 19.5737C20.3767 19.5737 20.2713 19.5482 20.1658 19.4972C19.8495 19.293 19.7177 18.8592 19.9022 18.5529C20.034 18.3488 20.2713 18.2212 20.5349 18.2212C20.6667 18.2212 20.7985 18.2467 20.9039 18.3233C21.1148 18.4509 21.2466 18.655 21.2466 18.9102V18.9357L22.591 19.6758V18.2977H22.5646C22.301 18.1701 22.1165 17.9149 22.1165 17.6342C22.1165 17.2514 22.4328 16.9452 22.8282 16.9452C23.0391 16.9452 23.2236 17.0217 23.3554 17.1493C23.4872 17.2769 23.5663 17.4556 23.5663 17.6342C23.5663 17.8639 23.4345 18.0936 23.1973 18.2212H23.1182V19.5482L24.2781 18.9102V18.8847C24.2781 18.6805 24.3571 18.4253 24.6207 18.2977C24.7262 18.2212 24.858 18.1957 24.9898 18.1957C25.2534 18.1957 25.4906 18.3233 25.5961 18.5274C25.7015 18.7061 25.7279 18.8847 25.6752 19.0633C25.6224 19.242 25.517 19.3951 25.3325 19.4716C25.227 19.5482 25.0952 19.5737 24.9898 19.5737C24.858 19.5737 24.7262 19.5482 24.6207 19.4716L23.4082 20.1352L24.5944 20.7987C24.7526 20.7476 24.8844 20.7221 24.9898 20.7221C25.1216 20.7221 25.227 20.7476 25.3325 20.7987C25.6488 21.0028 25.7806 21.4367 25.5961 21.7429C25.4643 21.9471 25.227 22.0747 24.9634 22.0747C24.8316 22.0747 24.6998 22.0492 24.5944 21.9726C24.3835 21.845 24.2517 21.6408 24.2517 21.3856V21.3601L23.1182 20.7476V22.0747H23.1446C23.3818 22.1768 23.5136 22.4064 23.5136 22.6616C23.5136 23.0699 23.1973 23.3762 22.8019 23.3762ZM3.61139 15.3119C1.60799 15.3119 0 13.7552 0 11.8157V3.49622C0 1.55671 1.60799 0 3.61139 0H27.3886C29.392 0 31 1.55671 31 3.49622V11.8157C31 13.7552 29.392 15.3119 27.3886 15.3119H3.61139ZM3.24235 1.53119C2.29337 1.53119 1.52891 2.29679 1.52891 3.26654V12.1474C1.52891 13.0917 2.29337 13.8828 3.24235 13.8828H27.7313C28.6803 13.8828 29.4447 13.1172 29.4447 12.1474V3.26654C29.4447 2.32231 28.6803 1.53119 27.7313 1.53119H3.24235ZM3.95408 11.4839C3.61139 11.4839 3.32143 11.2032 3.32143 10.8715C3.32143 10.5397 3.61139 10.259 3.95408 10.259H26.4396C26.7823 10.259 27.0723 10.5397 27.0723 10.8715C27.0723 11.2032 26.7823 11.4839 26.4396 11.4839H3.95408ZM3.95408 8.90643C3.61139 8.90643 3.32143 8.62571 3.32143 8.29395C3.32143 7.96219 3.61139 7.68148 3.95408 7.68148H26.4396C26.7823 7.68148 27.0723 7.96219 27.0723 8.29395C27.0723 8.62571 26.7823 8.90643 26.4396 8.90643H3.95408Z" fill="black"/>
</svg>
