<svg width="28" height="23" viewBox="0 0 28 23" fill="none" xmlns="http://www.w3.org/2000/svg">
<path d="M1.67969 18.9156C1.29453 18.9156 1 18.6312 1 18.2594V1.65625C1 1.28437 1.29453 1 1.67969 1H26.6695C27.0547 1 27.3492 1.28437 27.3492 1.65625V18.2594C27.3492 18.6969 27.032 18.9156 26.7148 18.9156H1.67969ZM2.35938 17.7125H26.0352V2.35625H2.35938V17.7125Z" fill="#3E3E3E" stroke="#3E3E3E" stroke-width="0.6"/>
<path d="M20.4618 15.9188C20.0767 15.9188 19.7821 15.6344 19.7821 15.2626C19.7821 14.8907 20.0767 14.6063 20.4618 14.6063H23.1126C23.4978 14.6063 23.7923 14.8907 23.7923 15.2626C23.7923 15.6344 23.4298 15.9188 23.1126 15.9188H20.4618ZM14.186 21.9782C13.8009 21.9782 13.5063 21.6938 13.5063 21.3219V18.5438C13.5063 18.1719 13.8009 17.8876 14.186 17.8876C14.5712 17.8876 14.8657 18.1719 14.8657 18.5438V21.3657C14.8431 21.6938 14.5485 21.9782 14.186 21.9782Z" fill="#3E3E3E" stroke="#3E3E3E" stroke-width="0.6"/>
<path d="M8.63525 22.5469C8.2501 22.5469 7.95557 22.2625 7.95557 21.8906C7.95557 21.5187 8.2501 21.2344 8.63525 21.2344H19.7595C20.1446 21.2344 20.4392 21.5187 20.4392 21.8906C20.4392 22.2625 20.0767 22.5469 19.7595 22.5469H8.63525Z" fill="#3E3E3E" stroke="#3E3E3E" stroke-width="0.6"/>
</svg>
