<svg width="28" height="28" viewBox="0 0 28 28" fill="none" xmlns="http://www.w3.org/2000/svg">
<path d="M9.97501 22.0367C9.59628 22.3504 9.53386 22.9237 9.83558 23.3174C10.1373 23.711 10.6889 23.7759 11.0676 23.4623L9.97501 22.0367ZM16.0496 20.6582V19.7468C16.0421 19.7468 16.0348 19.7468 16.0274 19.7471L16.0496 20.6582ZM27.1113 21.5696C27.5955 21.5696 27.9881 21.1615 27.9881 20.6582C27.9881 20.1549 27.5955 19.7468 27.1113 19.7468V21.5696ZM11.0676 23.4623C12.493 22.2819 14.25 21.6172 16.0718 21.5692L16.0274 19.7471C13.8239 19.8052 11.699 20.609 9.97501 22.0367L11.0676 23.4623ZM16.0496 21.5696H27.1113V19.7468H16.0496V21.5696Z" fill="#3E3E3E"/>
<path d="M25.7626 8.82244L26.0507 9.68319L26.0519 9.68277L25.7626 8.82244ZM26.0519 9.68277C26.3568 9.57199 26.6316 9.38688 26.8535 9.14296L25.5795 7.89061C25.55 7.92292 25.5137 7.94743 25.4732 7.96211L26.0519 9.68277ZM26.8535 9.14296C27.0755 8.89903 27.2379 8.60339 27.3272 8.2808L25.6422 7.77642C25.6303 7.81915 25.6088 7.85831 25.5795 7.89061L26.8535 9.14296ZM27.3272 8.2808C27.4166 7.95819 27.4303 7.61802 27.3672 7.28879L25.6474 7.64504C25.6558 7.68865 25.654 7.73371 25.6422 7.77642L27.3272 8.2808ZM27.3672 7.28879C27.304 6.95956 27.166 6.65084 26.9644 6.3885L25.5941 7.5258C25.6209 7.56054 25.6391 7.60143 25.6474 7.64504L27.3672 7.28879ZM26.9644 6.3885C25.3732 4.32191 23.2041 2.81795 20.7573 2.08523L20.2719 3.83677C22.3704 4.46517 24.2294 5.75343 25.5941 7.5258L26.9644 6.3885ZM20.7573 2.08523C18.3103 1.35252 15.705 1.42621 13.2999 2.29617L13.8763 4.01767C15.9389 3.27158 18.1732 3.20837 20.2719 3.83677L20.7573 2.08523ZM13.2999 2.29617C10.8949 3.16613 8.80836 4.78958 7.32759 6.94307L8.75416 8.003C10.0241 6.15611 11.8136 4.76379 13.8763 4.01767L13.2999 2.29617ZM7.32759 6.94307C5.8468 9.09656 5.04456 11.6742 5.03127 14.3212L6.78477 14.3307C6.79617 12.0606 7.4842 9.8499 8.75416 8.003L7.32759 6.94307ZM5.03127 14.3212C5.0299 14.6571 5.10602 14.9893 5.25322 15.2883L6.81417 14.4578C6.79467 14.4182 6.7846 14.3752 6.78477 14.3307L5.03127 14.3212ZM5.25322 15.2883C5.40042 15.5872 5.61444 15.8452 5.8773 16.0403L6.89682 14.5573C6.86201 14.5316 6.83367 14.4974 6.81417 14.4578L5.25322 15.2883ZM5.8773 16.0403C6.14017 16.2356 6.44425 16.3626 6.76403 16.4105L7.01428 14.6064C6.97192 14.6001 6.93165 14.5832 6.89682 14.5573L5.8773 16.0403ZM6.76403 16.4105C7.08381 16.4585 7.40999 16.426 7.71522 16.3158L7.14025 14.5939C7.09984 14.6085 7.05663 14.6127 7.01428 14.6064L6.76403 16.4105ZM7.71522 16.3158L26.0507 9.68319L25.4744 7.96169L7.14025 14.5939L7.71522 16.3158Z" fill="#3E3E3E"/>
<path d="M17.4098 11.8002C17.23 11.3329 16.7197 11.1056 16.2702 11.2925C15.8206 11.4794 15.6019 12.0098 15.7817 12.4771L17.4098 11.8002ZM19.0596 20.9967C19.2394 21.4641 19.7496 21.6913 20.1992 21.5044C20.6488 21.3175 20.8675 20.7871 20.6877 20.3199L19.0596 20.9967ZM15.7817 12.4771L19.0596 20.9967L20.6877 20.3199L17.4098 11.8002L15.7817 12.4771Z" fill="#3E3E3E"/>
<path d="M0.984544 26.1334C0.503989 26.0716 0.0662064 26.4264 0.00672995 26.926C-0.0527466 27.4255 0.288606 27.8806 0.769161 27.9423L0.984544 26.1334ZM6.13742 25.2151L6.7882 24.6043C6.62909 24.4212 6.4053 24.3129 6.168 24.3043C5.93071 24.2957 5.70021 24.3876 5.5292 24.5588L6.13742 25.2151ZM14.0283 25.2151L14.6791 24.6043C14.5129 24.413 14.2764 24.3037 14.0283 24.3037C13.7802 24.3037 13.5437 24.413 13.3775 24.6043L14.0283 25.2151ZM21.9191 25.2151L22.5273 24.5588C22.3563 24.3876 22.1259 24.2957 21.8886 24.3043C21.6513 24.3129 21.4275 24.4212 21.2684 24.6043L21.9191 25.2151ZM27.2232 27.9504C27.7043 27.8929 28.0495 27.4411 27.9942 26.9409C27.939 26.4409 27.5042 26.082 27.0232 26.1395L27.2232 27.9504ZM0.769161 27.9423C1.85082 28.0815 2.94873 27.9679 3.98271 27.6095L3.42819 25.8803C2.64194 26.1527 1.80707 26.2393 0.984544 26.1334L0.769161 27.9423ZM3.98271 27.6095C5.01669 27.2513 5.96065 26.6575 6.74565 25.8715L5.5292 24.5588C4.93226 25.1564 4.21445 25.6078 3.42819 25.8803L3.98271 27.6095ZM5.48665 25.8259C6.06723 26.4943 6.77631 27.0288 7.56802 27.3944L8.28017 25.7288C7.71265 25.4666 7.20438 25.0836 6.7882 24.6043L5.48665 25.8259ZM7.56802 27.3944C8.35973 27.7602 9.21647 27.9491 10.0829 27.9491V26.1265C9.46182 26.1265 8.84768 25.991 8.28017 25.7288L7.56802 27.3944ZM10.0829 27.9491C10.9492 27.9491 11.806 27.7602 12.5976 27.3944L11.8856 25.7288C11.318 25.991 10.7039 26.1265 10.0829 26.1265V27.9491ZM12.5976 27.3944C13.3894 27.0288 14.0984 26.4943 14.6791 25.8259L13.3775 24.6043C12.9613 25.0836 12.453 25.4666 11.8856 25.7288L12.5976 27.3944ZM13.3775 25.8259C13.9582 26.4943 14.6672 27.0288 15.4588 27.3944L16.171 25.7288C15.6036 25.4666 15.0953 25.0836 14.6791 24.6043L13.3775 25.8259ZM15.4588 27.3944C16.2506 27.7602 17.1073 27.9491 17.9738 27.9491V26.1265C17.3527 26.1265 16.7386 25.991 16.171 25.7288L15.4588 27.3944ZM17.9738 27.9491C18.8401 27.9491 19.6968 27.7602 20.4886 27.3944L19.7764 25.7288C19.2088 25.991 18.5947 26.1265 17.9738 26.1265V27.9491ZM20.4886 27.3944C21.2802 27.0288 21.9894 26.4943 22.5699 25.8259L21.2684 24.6043C20.8522 25.0836 20.344 25.4666 19.7764 25.7288L20.4886 27.3944ZM21.3109 25.8715C22.096 26.6575 23.0399 27.2513 24.0739 27.6095L24.6283 25.8803C23.8422 25.6078 23.1243 25.1564 22.5273 24.5588L21.3109 25.8715ZM24.0739 27.6095C25.0874 27.9607 26.1623 28.077 27.2232 27.9504L27.0232 26.1395C26.2164 26.2357 25.3991 26.1474 24.6283 25.8803L24.0739 27.6095Z" fill="#3E3E3E"/>
<path d="M12.7598 3.45629C12.9189 3.93169 13.4187 4.18304 13.876 4.01769C14.3334 3.85234 14.5752 3.3329 14.4161 2.85749L12.7598 3.45629ZM13.6648 0.612233C13.5058 0.136826 13.006 -0.114523 12.5487 0.050829C12.0914 0.216181 11.8495 0.735618 12.0086 1.21102L13.6648 0.612233ZM14.4161 2.85749L13.6648 0.612233L12.0086 1.21102L12.7598 3.45629L14.4161 2.85749Z" fill="#3E3E3E"/>
</svg>
