<svg width="27" height="21" viewBox="0 0 27 21" fill="none" xmlns="http://www.w3.org/2000/svg">
<path d="M21.367 11.6693C21.0937 11.6703 20.8299 11.5657 20.6288 11.3764C18.6286 9.54323 16.0378 8.52943 13.3528 8.52943C10.6677 8.52943 8.07696 9.54323 6.07673 11.3764C5.96601 11.4777 5.83684 11.5557 5.69663 11.606C5.55641 11.6562 5.40789 11.6777 5.25958 11.669C5.11126 11.6604 4.96605 11.622 4.83227 11.5559C4.69848 11.4897 4.57875 11.3974 4.47991 11.2839C4.28545 11.0513 4.18761 10.7502 4.20733 10.4448C4.22703 10.1394 4.36271 9.85403 4.58536 9.64976C6.99193 7.43315 10.1151 6.2066 13.3528 6.2066C16.5906 6.2066 19.7137 7.43315 22.1202 9.64976C22.3428 9.85403 22.4786 10.1394 22.4982 10.4448C22.5179 10.7502 22.4201 11.0513 22.2256 11.2839C22.1155 11.4042 21.9825 11.5005 21.8349 11.5668C21.6874 11.633 21.5282 11.668 21.367 11.6693Z" fill="black"/>
<path d="M25.3592 7.36786C25.0745 7.36643 24.8006 7.25651 24.5909 7.05956C21.5457 4.08883 17.4999 2.43163 13.2927 2.43163C9.08555 2.43163 5.0398 4.08883 1.9945 7.05956C1.89081 7.18573 1.76196 7.28776 1.61658 7.35878C1.47121 7.42984 1.31267 7.46822 1.15161 7.47146C0.990538 7.47454 0.830676 7.44248 0.682729 7.37726C0.534783 7.31198 0.402187 7.21511 0.29383 7.09312C0.185458 6.97114 0.10384 6.82684 0.0544439 6.66993C0.00503309 6.51301 -0.0110107 6.34709 0.00739786 6.18331C0.0257913 6.01952 0.0782 5.86165 0.161099 5.7203C0.244012 5.57894 0.355488 5.45737 0.488069 5.36373C3.94649 2.01108 8.529 0.142517 13.2927 0.142517C18.0563 0.142517 22.6389 2.01108 26.0974 5.36373C26.2622 5.51993 26.3777 5.72287 26.4292 5.94661C26.4809 6.17036 26.4661 6.40474 26.3869 6.61984C26.3076 6.83495 26.1676 7.02102 25.9845 7.15426C25.8015 7.28749 25.5838 7.36188 25.3592 7.36786Z" fill="black"/>
<path d="M9.36085 16.0629C9.18544 16.0629 9.01245 16.0212 8.85557 15.9408C8.69868 15.8607 8.56223 15.7441 8.45699 15.6004C8.366 15.4797 8.29958 15.3416 8.26164 15.1942C8.22369 15.0468 8.215 14.8931 8.23606 14.7423C8.25712 14.5914 8.30752 14.4463 8.38427 14.3158C8.46103 14.185 8.56259 14.0716 8.68295 13.9817C10.0128 12.9403 11.6407 12.376 13.3152 12.376C14.9898 12.376 16.6176 12.9403 17.9475 13.9817C18.0662 14.0728 18.1662 14.187 18.2418 14.3176C18.3173 14.4482 18.367 14.593 18.3881 14.7433C18.409 14.8936 18.4009 15.0465 18.364 15.1937C18.3273 15.3408 18.2625 15.479 18.1734 15.6004C17.9913 15.8425 17.7239 16.002 17.4285 16.0452C17.1331 16.0884 16.8327 16.0117 16.5917 15.8317C15.6499 15.0978 14.499 14.7003 13.3152 14.7003C12.1315 14.7003 10.9804 15.0978 10.0387 15.8317C9.84171 15.9789 9.60478 16.0597 9.36085 16.0629Z" fill="black"/>
<path d="M13.3078 20.8575C13.0082 20.8575 12.7207 20.7357 12.5089 20.5188C12.297 20.302 12.178 20.0079 12.178 19.7012C12.178 19.3946 12.297 19.1004 12.5089 18.8837C12.7207 18.6668 13.0082 18.545 13.3078 18.545C13.6074 18.545 13.8949 18.6668 14.1067 18.8837C14.3186 19.1004 14.4376 19.3946 14.4376 19.7012C14.4376 20.0079 14.3186 20.302 14.1067 20.5188C13.8949 20.7357 13.6074 20.8575 13.3078 20.8575Z" fill="black"/>
</svg>
